<?xml version="1.0" encoding="UTF-8"?>
<!DOCTYPE svg PUBLIC "-//W3C//DTD SVG 1.1//EN" "http://www.w3.org/Graphics/SVG/1.1/DTD/svg11.dtd">
<svg version="1.1" xmlns="http://www.w3.org/2000/svg" xmlns:xlink="http://www.w3.org/1999/xlink" x="0" y="0" width="200" height="200" viewBox="0, 0, 200, 200">
  <g id="Background">
    <rect x="0" y="0" width="200" height="200" fill="#000000" fill-opacity="0"/>
  </g>
  <g id="Background"/>
  <g id="Layer_1">
    <path d="M27.029,23.768 L57.335,23.768 C59.395,23.768 61.065,25.438 61.065,27.498 L61.065,172.502 C61.065,174.562 59.395,176.232 57.335,176.232 L27.029,176.232 C24.969,176.232 23.299,174.562 23.299,172.502 L23.299,27.498 C23.299,25.438 24.969,23.768 27.029,23.768 z" fill-opacity="0" stroke="#E0E0E0" stroke-width="2"/>
    <path d="M42.617,54.813 C32.224,54.813 23.799,53.418 23.799,51.696 M61.565,51.696 C61.565,53.418 53.082,54.813 42.617,54.813" fill-opacity="0" stroke="#E0E0E0" stroke-width="1"/>
    <path d="M42.617,79.624 C32.224,79.624 23.799,78.229 23.799,76.508 M61.565,76.508 C61.565,78.229 53.082,79.624 42.617,79.624" fill-opacity="0" stroke="#E0E0E0" stroke-width="1"/>
    <path d="M42.617,103.277 C32.224,103.277 23.799,101.882 23.799,100.16 M61.565,100.16 C61.565,101.882 53.082,103.277 42.617,103.277" fill-opacity="0" stroke="#E0E0E0" stroke-width="1"/>
    <path d="M42.617,125.651 C32.224,125.651 23.799,124.256 23.799,122.535 M61.565,122.535 C61.565,124.256 53.082,125.651 42.617,125.651" fill-opacity="0" stroke="#E0E0E0" stroke-width="1"/>
    <path d="M42.617,149.304 C32.224,149.304 23.799,147.908 23.799,146.187 M61.565,146.187 C61.565,147.908 53.082,149.304 42.617,149.304" fill-opacity="0" stroke="#E0E0E0" stroke-width="1"/>
    <path d="M33.223,158.268 L51.14,158.268 L51.14,165.189 L33.223,165.189 L33.223,158.268 z" fill="#6A77D6" display="none"/>
  </g>
  <g id="Layer_1_Copy">
    <path d="M71.138,23.768 L101.444,23.768 C103.504,23.768 105.174,25.438 105.174,27.498 L105.174,172.502 C105.174,174.562 103.504,176.232 101.444,176.232 L71.138,176.232 C69.078,176.232 67.408,174.562 67.408,172.502 L67.408,27.498 C67.408,25.438 69.078,23.768 71.138,23.768 z" fill-opacity="0" stroke="#E0E0E0" stroke-width="2"/>
    <path d="M86.726,54.813 C76.333,54.813 67.908,53.418 67.908,51.696 M105.674,51.696 C105.674,53.418 97.191,54.813 86.726,54.813" fill-opacity="0" stroke="#E0E0E0" stroke-width="1"/>
    <path d="M86.726,79.624 C76.333,79.624 67.908,78.229 67.908,76.508 M105.674,76.508 C105.674,78.229 97.191,79.624 86.726,79.624" fill-opacity="0" stroke="#E0E0E0" stroke-width="1"/>
    <path d="M86.726,103.277 C76.333,103.277 67.908,101.882 67.908,100.16 M105.674,100.16 C105.674,101.882 97.191,103.277 86.726,103.277" fill-opacity="0" stroke="#E0E0E0" stroke-width="1"/>
    <path d="M86.726,127.651 C76.333,127.651 67.908,126.256 67.908,124.535 M105.674,124.535 C105.674,126.256 97.191,127.651 86.726,127.651" fill-opacity="0" stroke="#E0E0E0" stroke-width="1"/>
    <path d="M86.726,149.304 C76.333,149.304 67.908,147.908 67.908,146.187 M105.674,146.187 C105.674,147.908 97.191,149.304 86.726,149.304" fill-opacity="0" stroke="#E0E0E0" stroke-width="1"/>
    <path d="M77.333,158.268 L95.25,158.268 L95.25,165.189 L77.333,165.189 L77.333,158.268 z" fill="#E0E0E0"/>
  </g>
  <g id="Layer_1_Copy">
    <path d="M108.014,29.594 L137.443,22.355 C139.444,21.863 141.464,23.086 141.956,25.086 L176.592,165.893 C177.084,167.893 175.861,169.914 173.861,170.406 L144.432,177.645 C142.432,178.137 140.411,176.914 139.919,174.914 L105.283,34.107 C104.791,32.107 106.014,30.086 108.014,29.594 z" fill-opacity="0" stroke="#E0E0E0" stroke-width="2"/>
    <path d="M130.462,56.151 C120.37,58.633 111.855,59.291 111.444,57.62 M148.117,48.599 C148.528,50.27 140.624,53.651 130.462,56.151" fill-opacity="0" stroke="#E0E0E0" stroke-width="1"/>
    <path d="M136.388,80.244 C126.296,82.726 117.781,83.384 117.37,81.713 M154.043,72.692 C154.454,74.363 146.55,77.744 136.388,80.244" fill-opacity="0" stroke="#E0E0E0" stroke-width="1"/>
    <path d="M142.038,103.212 C131.946,105.694 123.431,106.352 123.02,104.681 M159.693,95.66 C160.104,97.331 152.2,100.712 142.038,103.212" fill-opacity="0" stroke="#E0E0E0" stroke-width="1"/>
    <path d="M147.382,124.938 C137.29,127.421 128.775,128.078 128.364,126.407 M165.037,117.386 C165.448,119.058 157.544,122.439 147.382,124.938" fill-opacity="0" stroke="#E0E0E0" stroke-width="1"/>
    <path d="M153.032,147.906 C142.94,150.389 134.425,151.046 134.014,149.375 M170.687,140.354 C171.098,142.026 163.194,145.407 153.032,147.906" fill-opacity="0" stroke="#E0E0E0" stroke-width="1"/>
    <path d="M146.996,159.191 L163.793,154.924 L165.456,161.466 L148.658,165.733 L146.996,159.191 z" fill="#FFFFFF" display="none"/>
  </g>
</svg>
